0
SECTION
2
HEADER
9
$INSUNITS
70
1
9
$ACADVER
1
AC1014
9
$HANDSEED
5
FFFF
0
ENDSEC
0
SECTION
2
TABLES
0
TABLE
2
VPORT
5
8
100
AcDbSymbolTable
0
ENDTAB
0
TABLE
2
LTYPE
5
5
100
AcDbSymbolTable
0
LTYPE
5
14
100
AcDbSymbolTableRecord
100
AcDbLinetypeTableRecord
2
BYBLOCK
70
0
0
LTYPE
5
15
100
AcDbSymbolTableRecord
100
AcDbLinetypeTableRecord
2
BYLAYER
70
0
0
ENDTAB
0
TABLE
2
LAYER
5
2
100
AcDbSymbolTable
70
2
0
LAYER
5
50
100
AcDbSymbolTableRecord
100
AcDbLayerTableRecord
2
0
70
0
6
CONTINUOUS
0
ENDTAB
0
TABLE
2
STYLE
5
3
100
AcDbSymbolTable
70
1
0
STYLE
5
11
100
AcDbSymbolTableRecord
100
AcDbTextStyleTableRecord
2
STANDARD
70
0
0
ENDTAB
0
TABLE
2
VIEW
5
6
100
AcDbSymbolTable
70
0
0
ENDTAB
0
TABLE
2
UCS
5
7
100
AcDbSymbolTable
70
0
0
ENDTAB
0
TABLE
2
APPID
5
9
100
AcDbSymbolTable
70
2
0
APPID
5
12
100
AcDbSymbolTableRecord
100
AcDbRegAppTableRecord
2
ACAD
70
0
0
ENDTAB
0
TABLE
2
DIMSTYLE
5
A
100
AcDbSymbolTable
70
1
0
ENDTAB
0
TABLE
2
BLOCK_RECORD
5
1
100
AcDbSymbolTable
70
1
0
BLOCK_RECORD
5
1F
100
AcDbSymbolTableRecord
100
AcDbBlockTableRecord
2
*MODEL_SPACE
0
BLOCK_RECORD
5
1B
100
AcDbSymbolTableRecord
100
AcDbBlockTableRecord
2
*PAPER_SPACE
0
ENDTAB
0
ENDSEC
0
SECTION
2
BLOCKS
0
BLOCK
5
20
100
AcDbEntity
100
AcDbBlockBegin
2
*MODEL_SPACE
0
ENDBLK
5
21
100
AcDbEntity
100
AcDbBlockEnd
0
BLOCK
5
1C
100
AcDbEntity
100
AcDbBlockBegin
2
*PAPER_SPACE
0
ENDBLK
5
1D
100
AcDbEntity
100
AcDbBlockEnd
0
ENDSEC
0
SECTION
2
ENTITIES
0
LINE
5
100
100
AcDbEntity
8
0
100
AcDbLine
10
2.4000001882943578
20
-3.5000001117000425
30
0
11
2.4000001882943578
21
-4.0000001117000421
31
0
0
LINE
5
101
100
AcDbEntity
8
0
100
AcDbLine
10
2.4000001882943578
20
-4.0000001117000421
30
0
11
-1.599999811705642
21
-4.0000001117000421
31
0
0
LINE
5
102
100
AcDbEntity
8
0
100
AcDbLine
10
-1.599999811705642
20
-4.0000001117000421
30
0
11
-1.599999811705642
21
-3.5000001117000425
31
0
0
LINE
5
103
100
AcDbEntity
8
0
100
AcDbLine
10
-1.4049026659769794
20
1.5347253103115501
30
0
11
0.40000000249917111
21
-0.27200000169943633
31
0
0
LINE
5
104
100
AcDbEntity
8
0
100
AcDbLine
10
0.40000000249917111
20
-0.27200000169943633
30
0
11
2.2049026563088243
21
1.5347253103115501
31
0
0
LINE
5
105
100
AcDbEntity
8
0
100
AcDbLine
10
2.5675114715109268
20
1.0099074083085113
30
0
11
0.3999999951659225
21
-1.1552275531556135
31
0
0
LINE
5
106
100
AcDbEntity
8
0
100
AcDbLine
10
0.3999999951659225
20
-1.1552275531556135
30
0
11
-1.767511481179082
21
1.0099074083085113
31
0
0
LINE
5
107
100
AcDbEntity
8
0
100
AcDbLine
10
-1.9920754646656909
20
0.35604325233071732
30
0
11
-0.040404546839043605
21
-1.5948574319643436
31
0
0
LINE
5
108
100
AcDbEntity
8
0
100
AcDbLine
10
-0.040404546839043605
20
-1.5948574319643436
30
0
11
-0.70592829396469703
21
-2.2695444375443143
31
0
0
LINE
5
109
100
AcDbEntity
8
0
100
AcDbLine
10
-1.2359109198472666
20
-1.903828131004591
30
0
11
-0.92498107864954948
21
-1.5948574319643436
31
0
0
LINE
5
110
100
AcDbEntity
8
0
100
AcDbLine
10
-0.92498107864954948
20
-1.5948574319643436
30
0
11
-1.9977897977807078
21
-0.52497595253908247
31
0
0
LINE
5
111
100
AcDbEntity
8
0
100
AcDbLine
10
-1.9977897977807078
20
-0.52497595253908247
30
0
11
-2.6772378239240529
21
0.14618717197018413
31
0
0
LINE
5
112
100
AcDbEntity
8
0
100
AcDbLine
10
0.84099957575851714
20
-1.5948574319643436
30
0
11
2.7920754549975357
21
0.35604325233071732
31
0
0
LINE
5
113
100
AcDbEntity
8
0
100
AcDbLine
10
0.84099957575851714
20
-1.5948574319643436
30
0
11
1.5059282842965416
21
-2.2695444375443143
31
0
0
LINE
5
114
100
AcDbEntity
8
0
100
AcDbLine
10
2.0359109101791115
20
-1.903828131004591
30
0
11
1.7250128643727194
21
-1.5948574319643436
31
0
0
LINE
5
115
100
AcDbEntity
8
0
100
AcDbLine
10
1.7250128643727194
20
-1.5948574319643436
30
0
11
2.7977897881125529
21
-0.52497595253908247
31
0
0
LINE
5
116
100
AcDbEntity
8
0
100
AcDbLine
10
3.477237814255898
20
0.14618717197018413
30
0
11
2.7977897881125529
21
-0.52497595253908247
31
0
0
LINE
5
117
100
AcDbEntity
8
0
100
AcDbLine
10
1.240414555391983
20
-2.3855423456717051
30
0
11
1.7334199954061233
21
-2.8842398988799562
31
0
0
LINE
5
118
100
AcDbEntity
8
0
100
AcDbLine
10
0.85733213405185782
20
-2.4918293754746803
30
0
11
1.3927417139839287
21
-3.0230916152146698
31
0
0
LINE
5
119
100
AcDbEntity
8
0
100
AcDbLine
10
-0.057332143720013537
20
-2.4918293754746803
30
0
11
-0.59274172365208355
21
-3.0230916152146698
31
0
0
LINE
5
120
100
AcDbEntity
8
0
100
AcDbLine
10
-0.44041456506013843
20
-2.3855423456717051
30
0
11
-0.93342000507427847
21
-2.8842398988799562
31
0
0
LINE
5
121
100
AcDbEntity
8
0
100
AcDbLine
10
2.0359109101791115
20
-1.903828131004591
30
0
11
2.498335779657098
21
-2.364285240056164
31
0
0
LINE
5
122
100
AcDbEntity
8
0
100
AcDbLine
10
-1.2359109198472666
20
-1.903828131004591
30
0
11
-1.6983357893252526
21
-2.364285240056164
31
0
0
LINE
5
123
100
AcDbEntity
8
0
100
AcDbLine
10
1.953718347664738
20
1.7750892613588447
30
0
11
2.4162733133559011
21
2.237657509193903
31
0
0
LINE
5
124
100
AcDbEntity
8
0
100
AcDbLine
10
2.1396172231884569
20
2.4502416796093049
30
0
11
1.6671606946142765
21
1.979496145517589
31
0
0
LINE
5
125
100
AcDbEntity
8
0
100
AcDbLine
10
-1.3396172328566118
20
2.4502416796093049
30
0
11
-0.86716070428243086
21
1.979496145517589
31
0
0
LINE
5
126
100
AcDbEntity
8
0
100
AcDbLine
10
-1.616273323024056
20
2.237657509193903
30
0
11
-1.1537183573328931
21
1.7750892613588447
31
0
0
ARC
5
127
100
AcDbEntity
8
0
100
AcDbCircle
10
0.3999999951659225
20
-0.099999998791480624
30
0
40
2.4351592252710557
210
0
220
-0
230
1
100
AcDbArc
50
42.167571611915534
51
50.354503090448972
0
ARC
5
128
100
AcDbEntity
8
0
100
AcDbCircle
10
0.3999999951659225
20
-0.099999998791480624
30
0
40
2.4351592252710561
210
0
220
-0
230
1
100
AcDbArc
50
58.643563013824462
51
121.35643698617552
0
ARC
5
129
100
AcDbEntity
8
0
100
AcDbCircle
10
0.3999999951659225
20
-0.099999998791480624
30
0
40
2.4351592252710557
210
0
220
0
230
1
100
AcDbArc
50
129.64549690955104
51
137.83242838808448
0
ARC
5
130
100
AcDbEntity
8
0
100
AcDbCircle
10
0.3999999951659225
20
-0.099999998791480624
30
0
40
2.4351592252710557
210
0
220
0
230
1
100
AcDbArc
50
152.88458947075972
51
169.2062297237849
0
ARC
5
131
100
AcDbEntity
8
0
100
AcDbCircle
10
0.3999999951659225
20
-0.099999998791480624
30
0
40
2.4351592252710557
210
0
220
0
230
1
100
AcDbArc
50
242.98972373986922
51
249.81106912945305
0
ARC
5
132
100
AcDbEntity
8
0
100
AcDbCircle
10
0.3999999951659225
20
-0.099999998791480624
30
0
40
2.4351592252710557
210
0
220
0
230
1
100
AcDbArc
50
259.17535627213186
51
280.82464372786814
0
ARC
5
133
100
AcDbEntity
8
0
100
AcDbCircle
10
0.3999999951659225
20
-0.099999998791480624
30
0
40
2.4351592252710557
210
0
220
0
230
1
100
AcDbArc
50
290.18893087054693
51
297.01027626013075
0
ARC
5
134
100
AcDbEntity
8
0
100
AcDbCircle
10
0.3999999951659225
20
-0.099999998791480624
30
0
40
2.4351592252710557
210
0
220
-0
230
1
100
AcDbArc
50
10.793770276215124
51
27.115410529240272
0
ARC
5
135
100
AcDbEntity
8
0
100
AcDbCircle
10
0.3999999951659225
20
-0.099999998791480624
30
0
40
3.0870699244243336
210
0
220
-0
230
1
100
AcDbArc
50
4.5740719533737062
51
49.221615778933383
0
ARC
5
136
100
AcDbEntity
8
0
100
AcDbCircle
10
0.3999999951659225
20
-0.099999998791480624
30
0
40
3.0870699244243336
210
0
220
-0
230
1
100
AcDbArc
50
55.700608611796746
51
124.29939138820326
0
ARC
5
137
100
AcDbEntity
8
0
100
AcDbCircle
10
0.3999999951659225
20
-0.099999998791480624
30
0
40
3.0870699244243336
210
0
220
0
230
1
100
AcDbArc
50
130.77838422106663
51
175.42592804662624
0
ARC
5
138
100
AcDbEntity
8
0
100
AcDbCircle
10
0.3999999951659225
20
-0.099999998791480624
30
0
40
3.0870699244243336
210
0
220
0
230
1
100
AcDbArc
50
227.17842013055119
51
244.40944430025488
0
ARC
5
139
100
AcDbEntity
8
0
100
AcDbCircle
10
0.3999999951659225
20
-0.099999998791480624
30
0
40
3.087069924424334
210
0
220
0
230
1
100
AcDbArc
50
295.5905556997451
51
312.82157986944884
0
ARC
5
140
100
AcDbEntity
8
0
100
AcDbCircle
10
0.3999999951659225
20
-0.099999998791480624
30
0
40
3.0870699244243336
210
0
220
0
230
1
100
AcDbArc
50
251.2414617275937
51
288.75853827240627
0
LINE
5
141
100
AcDbEntity
8
0
100
AcDbLine
10
-2.6550000165882484
20
-0.35500000221801437
30
0
11
-1.4149999828994508
21
-1.59999998066369
31
0
0
LINE
5
142
100
AcDbEntity
8
0
100
AcDbLine
10
-1.4149999828994508
20
-1.59999998066369
30
0
11
-1.919999976796428
21
-2.0999999746210931
31
0
0
LINE
5
143
100
AcDbEntity
8
0
100
AcDbLine
10
3.4582433466802054
20
-0.35500000221801437
30
0
11
2.2164010067784972
21
-1.5948574319643436
31
0
0
LINE
5
144
100
AcDbEntity
8
0
100
AcDbLine
10
2.2164010067784972
20
-1.5948574319643436
30
0
11
2.7214706390001093
21
-2.0999999746210931
31
0
0
ARC
5
145
100
AcDbEntity
8
0
100
AcDbCircle
10
0.3999999951659225
20
-0.099999998791480624
30
0
40
3.0688560407469168
210
0
220
0
230
1
100
AcDbArc
50
319.24785569917083
51
355.23363462259726
0
ARC
5
146
100
AcDbEntity
8
0
100
AcDbCircle
10
0.3999999951659225
20
-0.099999998791480624
30
0
40
3.0656239289197744
210
0
220
0
230
1
100
AcDbArc
50
184.77140223730987
51
220.76690182208168
0
LINE
5
147
100
AcDbEntity
8
0
100
AcDbLine
10
2.7247829011813542
20
-2.1033127149512136
30
0
11
2.7214706390001093
21
-2.0999999746210931
31
0
0
LINE
5
148
100
AcDbEntity
8
0
100
AcDbLine
10
-1.919999976796428
20
-2.0999999746210931
30
0
11
-1.921818933556553
21
-2.1018009219083451
31
0
0
ARC
5
149
100
AcDbEntity
8
0
100
AcDbCircle
10
-1.6966663504319479
20
-2.0999999746210931
30
0
40
1.403333461273693
210
0
220
0
230
1
100
AcDbArc
50
180
51
273.94986242505729
0
ARC
5
150
100
AcDbEntity
8
0
100
AcDbCircle
10
2.4966667270206662
20
-2.0999999746210936
30
0
40
1.4033334612736919
210
0
220
0
230
1
100
AcDbArc
50
-93.94986242505739
51
0
0
LINE
5
151
100
AcDbEntity
8
0
100
AcDbLine
10
-3.0999998117056413
20
0.0015676099470550832
30
0
11
-3.0999998117056413
21
-2.0999999746210931
31
0
0
LINE
5
152
100
AcDbEntity
8
0
100
AcDbLine
10
3.9000001882943578
20
0
30
0
11
3.9000001882943578
21
-2.0999999746210931
31
0
0
ARC
5
153
100
AcDbEntity
8
0
100
AcDbCircle
10
0.3999999951659225
20
-0.099999998791480624
30
0
40
3.5014732081290934
210
0
220
-0
230
1
100
AcDbArc
50
1.6620000688831216
51
178.33778202366429
0
ENDSEC
0
SECTION
2
OBJECTS
0
DICTIONARY
5
C
100
AcDbDictionary
3
ACAD_GROUP
350
D
3
ACAD_MLINESTYLE
350
17
0
DICTIONARY
5
D
100
AcDbDictionary
0
DICTIONARY
5
1A
330
C
100
AcDbDictionary
0
DICTIONARY
5
17
100
AcDbDictionary
0
ENDSEC
0
EOF
